<?xml version="1.0" encoding="UTF-8"?>
<svg viewBox="0 0 1300 1300" xmlns="http://www.w3.org/2000/svg">
  <defs>
    <style>
      .area-border { fill: none; stroke: #333; stroke-width: 2; }
      .area-label { font-family: 'Noto Sans JP', sans-serif; font-size: 14px; font-weight: bold; text-anchor: middle; fill: #333; }
      .area-label-large { font-family: 'Noto Sans JP', sans-serif; font-size: 18px; font-weight: bold; text-anchor: middle; fill: #333; }
      .circle-number { font-family: 'Noto Sans JP', sans-serif; font-size: 11px; text-anchor: middle; fill: #333; font-weight: bold; }
      .circle-box { fill: #f8f9fa; stroke: #333; stroke-width: 1; }
      .cosplay-area { fill: #f0f0f0; stroke: #333; stroke-width: 1; }
      .entrance { fill: #f0f0f0; stroke: #333; stroke-width: 2; }
      .tu-label { font-family: 'Noto Sans JP', sans-serif; font-size: 12px; font-weight: bold; text-anchor: middle; fill: #333; }
    </style>
  </defs>

  <!-- 外枠 -->
  <rect x="10" y="10" width="1215" height="950" class="area-border"/>

  <!-- 出入口 GATE (上部) -->
  <rect x="500" y="30" width="200" height="60" class="entrance"/>
  <text x="600" y="55" class="area-label-large">出入口</text>
  <text x="600" y="75" class="area-label-large">GATE</text>

  <!-- つエリア (左上) -->
  <g id="tu-area-left">
    <text x="85" y="130" class="area-label-large">つ</text>
    
    <!-- つ-41からつ-44 -->
    <rect x="70" y="140" width="30" height="25" class="circle-box" data-block="つ" data-number="41"/>
    <text x="85" y="157" class="circle-number">41</text>
    <rect x="70" y="170" width="30" height="25" class="circle-box" data-block="つ" data-number="42"/>
    <text x="85" y="187" class="circle-number">42</text>
    <rect x="70" y="200" width="30" height="25" class="circle-box" data-block="つ" data-number="43"/>
    <text x="85" y="217" class="circle-number">43</text>
    <rect x="70" y="230" width="30" height="25" class="circle-box" data-block="つ" data-number="44"/>
    <text x="85" y="247" class="circle-number">44</text>
  </g>

  <!-- つエリア (右上) -->
  <g id="tu-area-right">
    <text x="1140" y="600" class="area-label-large">つ</text>
    
    <!-- つ-25からつ-28 -->
    <rect x="1125" y="610" width="30" height="25" class="circle-box" data-block="つ" data-number="25"/>
    <text x="1140" y="627" class="circle-number">25</text>
    <rect x="1125" y="640" width="30" height="25" class="circle-box" data-block="つ" data-number="26"/>
    <text x="1140" y="657" class="circle-number">26</text>
    <rect x="1125" y="670" width="30" height="25" class="circle-box" data-block="つ" data-number="27"/>
    <text x="1140" y="687" class="circle-number">27</text>
    <rect x="1125" y="700" width="30" height="25" class="circle-box" data-block="つ" data-number="28"/>
    <text x="1140" y="717" class="circle-number">28</text>
  </g>

  <!-- あエリア -->
  <g id="a-area" transform="translate(150, 180)">
    <text x="300" y="-10" class="area-label-large">あ</text>
    <text x="615" y="-10" class="area-label-large">あ</text>    
    <!-- あ-24からあ-13 -->
    <g>
      <rect x="0" y="0" width="30" height="25" class="circle-box" data-block="あ" data-number="24"/>
      <text x="15" y="17" class="circle-number">24</text>
      <rect x="35" y="0" width="30" height="25" class="circle-box" data-block="あ" data-number="23"/>
      <text x="50" y="17" class="circle-number">23</text>
      <rect x="70" y="0" width="30" height="25" class="circle-box" data-block="あ" data-number="22"/>
      <text x="85" y="17" class="circle-number">22</text>
      <rect x="105" y="0" width="30" height="25" class="circle-box" data-block="あ" data-number="21"/>
      <text x="120" y="17" class="circle-number">21</text>
      <rect x="140" y="0" width="30" height="25" class="circle-box" data-block="あ" data-number="20"/>
      <text x="155" y="17" class="circle-number">20</text>
      <rect x="175" y="0" width="30" height="25" class="circle-box" data-block="あ" data-number="19"/>
      <text x="190" y="17" class="circle-number">19</text>
      <rect x="210" y="0" width="30" height="25" class="circle-box" data-block="あ" data-number="18"/>
      <text x="225" y="17" class="circle-number">18</text>
      <rect x="245" y="0" width="30" height="25" class="circle-box" data-block="あ" data-number="17"/>
      <text x="260" y="17" class="circle-number">17</text>
      <rect x="280" y="0" width="30" height="25" class="circle-box" data-block="あ" data-number="16"/>
      <text x="295" y="17" class="circle-number">16</text>
      <rect x="315" y="0" width="30" height="25" class="circle-box" data-block="あ" data-number="15"/>
      <text x="330" y="17" class="circle-number">15</text>
      <rect x="350" y="0" width="30" height="25" class="circle-box" data-block="あ" data-number="14"/>
      <text x="365" y="17" class="circle-number">14</text>
      <rect x="385" y="0" width="30" height="25" class="circle-box" data-block="あ" data-number="13"/>
      <text x="400" y="17" class="circle-number">13</text>
    </g>

    <!-- あ-12からあ-01 -->
    <g transform="translate(500, 0)">
      <rect x="0" y="0" width="30" height="25" class="circle-box" data-block="あ" data-number="12"/>
      <text x="15" y="17" class="circle-number">12</text>
      <rect x="35" y="0" width="30" height="25" class="circle-box" data-block="あ" data-number="11"/>
      <text x="50" y="17" class="circle-number">11</text>
      <rect x="70" y="0" width="30" height="25" class="circle-box" data-block="あ" data-number="10"/>
      <text x="85" y="17" class="circle-number">10</text>
      <rect x="105" y="0" width="30" height="25" class="circle-box" data-block="あ" data-number="09"/>
      <text x="120" y="17" class="circle-number">09</text>
      <rect x="140" y="0" width="30" height="25" class="circle-box" data-block="あ" data-number="08"/>
      <text x="155" y="17" class="circle-number">08</text>
      <rect x="175" y="0" width="30" height="25" class="circle-box" data-block="あ" data-number="07"/>
      <text x="190" y="17" class="circle-number">07</text>
      <rect x="210" y="0" width="30" height="25" class="circle-box" data-block="あ" data-number="06"/>
      <text x="225" y="17" class="circle-number">06</text>
      <rect x="245" y="0" width="30" height="25" class="circle-box" data-block="あ" data-number="05"/>
      <text x="260" y="17" class="circle-number">05</text>
      <rect x="280" y="0" width="30" height="25" class="circle-box" data-block="あ" data-number="04"/>
      <text x="295" y="17" class="circle-number">04</text>
      <rect x="315" y="0" width="30" height="25" class="circle-box" data-block="あ" data-number="03"/>
      <text x="330" y="17" class="circle-number">03</text>
      <rect x="350" y="0" width="30" height="25" class="circle-box" data-block="あ" data-number="02"/>
      <text x="365" y="17" class="circle-number">02</text>
      <rect x="385" y="0" width="30" height="25" class="circle-box" data-block="あ" data-number="01"/>
      <text x="400" y="17" class="circle-number">01</text>
    </g>

    <!-- あ-25-30、あ-31-34 -->
    <g transform="translate(0, 50)">
      <rect x="0" y="0" width="30" height="25" class="circle-box" data-block="あ" data-number="25"/>
      <text x="15" y="17" class="circle-number">25</text>
      <rect x="35" y="0" width="30" height="25" class="circle-box" data-block="あ" data-number="26"/>
      <text x="50" y="17" class="circle-number">26</text>
      <rect x="70" y="0" width="30" height="25" class="circle-box" data-block="あ" data-number="27"/>
      <text x="85" y="17" class="circle-number">27</text>
      <rect x="105" y="0" width="30" height="25" class="circle-box" data-block="あ" data-number="28"/>
      <text x="120" y="17" class="circle-number">28</text>
      <rect x="140" y="0" width="30" height="25" class="circle-box" data-block="あ" data-number="29"/>
      <text x="155" y="17" class="circle-number">29</text>
      <rect x="175" y="0" width="30" height="25" class="circle-box" data-block="あ" data-number="30"/>
      <text x="190" y="17" class="circle-number">30</text>

      <!-- あ-31からあ-34 -->
      <rect x="280" y="0" width="30" height="25" class="circle-box" data-block="あ" data-number="31"/>
      <text x="295" y="17" class="circle-number">31</text>
      <rect x="315" y="0" width="30" height="25" class="circle-box" data-block="あ" data-number="32"/>
      <text x="330" y="17" class="circle-number">32</text>
      <rect x="350" y="0" width="30" height="25" class="circle-box" data-block="あ" data-number="33"/>
      <text x="365" y="17" class="circle-number">33</text>
      <rect x="385" y="0" width="30" height="25" class="circle-box" data-block="あ" data-number="34"/>
      <text x="400" y="17" class="circle-number">34</text>
    </g>

    <!-- あ-35-38、あ-39-44 -->
    <g transform="translate(500, 50)">
      <rect x="0" y="0" width="30" height="25" class="circle-box" data-block="あ" data-number="35"/>
      <text x="15" y="17" class="circle-number">35</text>
      <rect x="35" y="0" width="30" height="25" class="circle-box" data-block="あ" data-number="36"/>
      <text x="50" y="17" class="circle-number">36</text>
      <rect x="70" y="0" width="30" height="25" class="circle-box" data-block="あ" data-number="37"/>
      <text x="85" y="17" class="circle-number">37</text>
      <rect x="105" y="0" width="30" height="25" class="circle-box" data-block="あ" data-number="38"/>
      <text x="120" y="17" class="circle-number">38</text>

      <!-- あ-39からあ-44 -->
      <rect x="210" y="0" width="30" height="25" class="circle-box" data-block="あ" data-number="39"/>
      <text x="225" y="17" class="circle-number">39</text>
      <rect x="245" y="0" width="30" height="25" class="circle-box" data-block="あ" data-number="40"/>
      <text x="260" y="17" class="circle-number">40</text>
      <rect x="280" y="0" width="30" height="25" class="circle-box" data-block="あ" data-number="41"/>
      <text x="295" y="17" class="circle-number">41</text>
      <rect x="315" y="0" width="30" height="25" class="circle-box" data-block="あ" data-number="42"/>
      <text x="330" y="17" class="circle-number">42</text>
      <rect x="350" y="0" width="30" height="25" class="circle-box" data-block="あ" data-number="43"/>
      <text x="365" y="17" class="circle-number">43</text>
      <rect x="385" y="0" width="30" height="25" class="circle-box" data-block="あ" data-number="44"/>
      <text x="400" y="17" class="circle-number">44</text>
    </g>
  </g>

  <!-- いエリア -->
  <g id="i-area" transform="translate(150, 350)">
    <text x="300" y="-10" class="area-label-large">い</text>
    <text x="615" y="-10" class="area-label-large">い</text>
    <!-- い-24からい-13 -->
    <g>
      <rect x="0" y="0" width="30" height="25" class="circle-box" data-block="い" data-number="24"/>
      <text x="15" y="17" class="circle-number">24</text>
      <rect x="35" y="0" width="30" height="25" class="circle-box" data-block="い" data-number="23"/>
      <text x="50" y="17" class="circle-number">23</text>
      <rect x="70" y="0" width="30" height="25" class="circle-box" data-block="い" data-number="22"/>
      <text x="85" y="17" class="circle-number">22</text>
      <rect x="105" y="0" width="30" height="25" class="circle-box" data-block="い" data-number="21"/>
      <text x="120" y="17" class="circle-number">21</text>
      <rect x="140" y="0" width="30" height="25" class="circle-box" data-block="い" data-number="20"/>
      <text x="155" y="17" class="circle-number">20</text>
      <rect x="175" y="0" width="30" height="25" class="circle-box" data-block="い" data-number="19"/>
      <text x="190" y="17" class="circle-number">19</text>
      <rect x="210" y="0" width="30" height="25" class="circle-box" data-block="い" data-number="18"/>
      <text x="225" y="17" class="circle-number">18</text>
      <rect x="245" y="0" width="30" height="25" class="circle-box" data-block="い" data-number="17"/>
      <text x="260" y="17" class="circle-number">17</text>
      <rect x="280" y="0" width="30" height="25" class="circle-box" data-block="い" data-number="16"/>
      <text x="295" y="17" class="circle-number">16</text>
      <rect x="315" y="0" width="30" height="25" class="circle-box" data-block="い" data-number="15"/>
      <text x="330" y="17" class="circle-number">15</text>
      <rect x="350" y="0" width="30" height="25" class="circle-box" data-block="い" data-number="14"/>
      <text x="365" y="17" class="circle-number">14</text>
      <rect x="385" y="0" width="30" height="25" class="circle-box" data-block="い" data-number="13"/>
      <text x="400" y="17" class="circle-number">13</text>
    </g>

    <!-- い-12からい-01 -->
    <g transform="translate(500, 0)">
      <rect x="0" y="0" width="30" height="25" class="circle-box" data-block="い" data-number="12"/>
      <text x="15" y="17" class="circle-number">12</text>
      <rect x="35" y="0" width="30" height="25" class="circle-box" data-block="い" data-number="11"/>
      <text x="50" y="17" class="circle-number">11</text>
      <rect x="70" y="0" width="30" height="25" class="circle-box" data-block="い" data-number="10"/>
      <text x="85" y="17" class="circle-number">10</text>
      <rect x="105" y="0" width="30" height="25" class="circle-box" data-block="い" data-number="09"/>
      <text x="120" y="17" class="circle-number">09</text>
      <rect x="140" y="0" width="30" height="25" class="circle-box" data-block="い" data-number="08"/>
      <text x="155" y="17" class="circle-number">08</text>
      <rect x="175" y="0" width="30" height="25" class="circle-box" data-block="い" data-number="07"/>
      <text x="190" y="17" class="circle-number">07</text>
      <rect x="210" y="0" width="30" height="25" class="circle-box" data-block="い" data-number="06"/>
      <text x="225" y="17" class="circle-number">06</text>
      <rect x="245" y="0" width="30" height="25" class="circle-box" data-block="い" data-number="05"/>
      <text x="260" y="17" class="circle-number">05</text>
      <rect x="280" y="0" width="30" height="25" class="circle-box" data-block="い" data-number="04"/>
      <text x="295" y="17" class="circle-number">04</text>
      <rect x="315" y="0" width="30" height="25" class="circle-box" data-block="い" data-number="03"/>
      <text x="330" y="17" class="circle-number">03</text>
      <rect x="350" y="0" width="30" height="25" class="circle-box" data-block="い" data-number="02"/>
      <text x="365" y="17" class="circle-number">02</text>
      <rect x="385" y="0" width="30" height="25" class="circle-box" data-block="い" data-number="01"/>
      <text x="400" y="17" class="circle-number">01</text>
    </g>

    <!-- い-25-30、い-31-34 -->
    <g transform="translate(0, 50)">
      <rect x="0" y="0" width="30" height="25" class="circle-box" data-block="い" data-number="25"/>
      <text x="15" y="17" class="circle-number">25</text>
      <rect x="35" y="0" width="30" height="25" class="circle-box" data-block="い" data-number="26"/>
      <text x="50" y="17" class="circle-number">26</text>
      <rect x="70" y="0" width="30" height="25" class="circle-box" data-block="い" data-number="27"/>
      <text x="85" y="17" class="circle-number">27</text>
      <rect x="105" y="0" width="30" height="25" class="circle-box" data-block="い" data-number="28"/>
      <text x="120" y="17" class="circle-number">28</text>
      <rect x="140" y="0" width="30" height="25" class="circle-box" data-block="い" data-number="29"/>
      <text x="155" y="17" class="circle-number">29</text>
      <rect x="175" y="0" width="30" height="25" class="circle-box" data-block="い" data-number="30"/>
      <text x="190" y="17" class="circle-number">30</text>

      <!-- い-31からい-34 -->
      <rect x="280" y="0" width="30" height="25" class="circle-box" data-block="い" data-number="31"/>
      <text x="295" y="17" class="circle-number">31</text>
      <rect x="315" y="0" width="30" height="25" class="circle-box" data-block="い" data-number="32"/>
      <text x="330" y="17" class="circle-number">32</text>
      <rect x="350" y="0" width="30" height="25" class="circle-box" data-block="い" data-number="33"/>
      <text x="365" y="17" class="circle-number">33</text>
      <rect x="385" y="0" width="30" height="25" class="circle-box" data-block="い" data-number="34"/>
      <text x="400" y="17" class="circle-number">34</text>
    </g>

    <!-- い-35-38、い-39-44 -->
    <g transform="translate(500, 50)">
      <rect x="0" y="0" width="30" height="25" class="circle-box" data-block="い" data-number="35"/>
      <text x="15" y="17" class="circle-number">35</text>
      <rect x="35" y="0" width="30" height="25" class="circle-box" data-block="い" data-number="36"/>
      <text x="50" y="17" class="circle-number">36</text>
      <rect x="70" y="0" width="30" height="25" class="circle-box" data-block="い" data-number="37"/>
      <text x="85" y="17" class="circle-number">37</text>
      <rect x="105" y="0" width="30" height="25" class="circle-box" data-block="い" data-number="38"/>
      <text x="120" y="17" class="circle-number">38</text>

      <!-- い-39からい-44 -->
      <rect x="210" y="0" width="30" height="25" class="circle-box" data-block="い" data-number="39"/>
      <text x="225" y="17" class="circle-number">39</text>
      <rect x="245" y="0" width="30" height="25" class="circle-box" data-block="い" data-number="40"/>
      <text x="260" y="17" class="circle-number">40</text>
      <rect x="280" y="0" width="30" height="25" class="circle-box" data-block="い" data-number="41"/>
      <text x="295" y="17" class="circle-number">41</text>
      <rect x="315" y="0" width="30" height="25" class="circle-box" data-block="い" data-number="42"/>
      <text x="330" y="17" class="circle-number">42</text>
      <rect x="350" y="0" width="30" height="25" class="circle-box" data-block="い" data-number="43"/>
      <text x="365" y="17" class="circle-number">43</text>
      <rect x="385" y="0" width="30" height="25" class="circle-box" data-block="い" data-number="44"/>
      <text x="400" y="17" class="circle-number">44</text>
    </g>
  </g>

  <!-- つエリア左下 -->
  <g id="tu-area-left-bottom">
   
    <!-- つ-40からつ-33 -->
    <rect x="70" y="290" width="30" height="25" class="circle-box" data-block="つ" data-number="40"/>
    <text x="85" y="307" class="circle-number">40</text>
    <rect x="70" y="320" width="30" height="25" class="circle-box" data-block="つ" data-number="39"/>
    <text x="85" y="337" class="circle-number">39</text>
    <rect x="70" y="350" width="30" height="25" class="circle-box" data-block="つ" data-number="38"/>
    <text x="85" y="367" class="circle-number">38</text>
    <rect x="70" y="380" width="30" height="25" class="circle-box" data-block="つ" data-number="37"/>
    <text x="85" y="397" class="circle-number">37</text>
    <rect x="70" y="450" width="30" height="25" class="circle-box" data-block="つ" data-number="36"/>
    <text x="85" y="467" class="circle-number">36</text>
    <rect x="70" y="480" width="30" height="25" class="circle-box" data-block="つ" data-number="35"/>
    <text x="85" y="497" class="circle-number">35</text>
    <rect x="70" y="510" width="30" height="25" class="circle-box" data-block="つ" data-number="34"/>
    <text x="85" y="527" class="circle-number">34</text>
    <rect x="70" y="540" width="30" height="25" class="circle-box" data-block="つ" data-number="33"/>
    <text x="85" y="557" class="circle-number">33</text>
  </g>

  <!-- つエリア右下 -->
  <g id="tu-area-right-bottom">
    
    <!-- つ-32からつ-29 -->
    <rect x="70" y="610" width="30" height="25" class="circle-box" data-block="つ" data-number="32"/>
    <text x="85" y="627" class="circle-number">32</text>
    <rect x="70" y="640" width="30" height="25" class="circle-box" data-block="つ" data-number="31"/>
    <text x="85" y="657" class="circle-number">31</text>
    <rect x="70" y="670" width="30" height="25" class="circle-box" data-block="つ" data-number="30"/>
    <text x="85" y="687" class="circle-number">30</text>
    <rect x="70" y="700" width="30" height="25" class="circle-box" data-block="つ" data-number="29"/>
    <text x="85" y="717" class="circle-number">29</text>
  </g>

  <!-- かエリア -->
  <g id="ka-area" transform="translate(150, 520)">
    <text x="300" y="-10" class="area-label-large">か</text>
    <text x="615" y="-10" class="area-label-large">か</text>
    <!-- か-24からか-13 -->
    <g>
      <rect x="0" y="0" width="30" height="25" class="circle-box" data-block="か" data-number="24"/>
      <text x="15" y="17" class="circle-number">24</text>
      <rect x="35" y="0" width="30" height="25" class="circle-box" data-block="か" data-number="23"/>
      <text x="50" y="17" class="circle-number">23</text>
      <rect x="70" y="0" width="30" height="25" class="circle-box" data-block="か" data-number="22"/>
      <text x="85" y="17" class="circle-number">22</text>
      <rect x="105" y="0" width="30" height="25" class="circle-box" data-block="か" data-number="21"/>
      <text x="120" y="17" class="circle-number">21</text>
      <rect x="140" y="0" width="30" height="25" class="circle-box" data-block="か" data-number="20"/>
      <text x="155" y="17" class="circle-number">20</text>
      <rect x="175" y="0" width="30" height="25" class="circle-box" data-block="か" data-number="19"/>
      <text x="190" y="17" class="circle-number">19</text>
      <rect x="210" y="0" width="30" height="25" class="circle-box" data-block="か" data-number="18"/>
      <text x="225" y="17" class="circle-number">18</text>
      <rect x="245" y="0" width="30" height="25" class="circle-box" data-block="か" data-number="17"/>
      <text x="260" y="17" class="circle-number">17</text>
      <rect x="280" y="0" width="30" height="25" class="circle-box" data-block="か" data-number="16"/>
      <text x="295" y="17" class="circle-number">16</text>
      <rect x="315" y="0" width="30" height="25" class="circle-box" data-block="か" data-number="15"/>
      <text x="330" y="17" class="circle-number">15</text>
      <rect x="350" y="0" width="30" height="25" class="circle-box" data-block="か" data-number="14"/>
      <text x="365" y="17" class="circle-number">14</text>
      <rect x="385" y="0" width="30" height="25" class="circle-box" data-block="か" data-number="13"/>
      <text x="400" y="17" class="circle-number">13</text>
    </g>

    <!-- か-12からか-01 -->
    <g transform="translate(500, 0)">
      <rect x="0" y="0" width="30" height="25" class="circle-box" data-block="か" data-number="12"/>
      <text x="15" y="17" class="circle-number">12</text>
      <rect x="35" y="0" width="30" height="25" class="circle-box" data-block="か" data-number="11"/>
      <text x="50" y="17" class="circle-number">11</text>
      <rect x="70" y="0" width="30" height="25" class="circle-box" data-block="か" data-number="10"/>
      <text x="85" y="17" class="circle-number">10</text>
      <rect x="105" y="0" width="30" height="25" class="circle-box" data-block="か" data-number="09"/>
      <text x="120" y="17" class="circle-number">09</text>
      <rect x="140" y="0" width="30" height="25" class="circle-box" data-block="か" data-number="08"/>
      <text x="155" y="17" class="circle-number">08</text>
      <rect x="175" y="0" width="30" height="25" class="circle-box" data-block="か" data-number="07"/>
      <text x="190" y="17" class="circle-number">07</text>
      <rect x="210" y="0" width="30" height="25" class="circle-box" data-block="か" data-number="06"/>
      <text x="225" y="17" class="circle-number">06</text>
      <rect x="245" y="0" width="30" height="25" class="circle-box" data-block="か" data-number="05"/>
      <text x="260" y="17" class="circle-number">05</text>
      <rect x="280" y="0" width="30" height="25" class="circle-box" data-block="か" data-number="04"/>
      <text x="295" y="17" class="circle-number">04</text>
      <rect x="315" y="0" width="30" height="25" class="circle-box" data-block="か" data-number="03"/>
      <text x="330" y="17" class="circle-number">03</text>
      <rect x="350" y="0" width="30" height="25" class="circle-box" data-block="か" data-number="02"/>
      <text x="365" y="17" class="circle-number">02</text>
      <rect x="385" y="0" width="30" height="25" class="circle-box" data-block="か" data-number="01"/>
      <text x="400" y="17" class="circle-number">01</text>
    </g>

    <!-- か-25-30、か-31-34 -->
    <g transform="translate(0, 50)">
      <rect x="0" y="0" width="30" height="25" class="circle-box" data-block="か" data-number="25"/>
      <text x="15" y="17" class="circle-number">25</text>
      <rect x="35" y="0" width="30" height="25" class="circle-box" data-block="か" data-number="26"/>
      <text x="50" y="17" class="circle-number">26</text>
      <rect x="70" y="0" width="30" height="25" class="circle-box" data-block="か" data-number="27"/>
      <text x="85" y="17" class="circle-number">27</text>
      <rect x="105" y="0" width="30" height="25" class="circle-box" data-block="か" data-number="28"/>
      <text x="120" y="17" class="circle-number">28</text>
      <rect x="140" y="0" width="30" height="25" class="circle-box" data-block="か" data-number="29"/>
      <text x="155" y="17" class="circle-number">29</text>
      <rect x="175" y="0" width="30" height="25" class="circle-box" data-block="か" data-number="30"/>
      <text x="190" y="17" class="circle-number">30</text>

      <!-- か-31からか-34 -->
      <rect x="280" y="0" width="30" height="25" class="circle-box" data-block="か" data-number="31"/>
      <text x="295" y="17" class="circle-number">31</text>
      <rect x="315" y="0" width="30" height="25" class="circle-box" data-block="か" data-number="32"/>
      <text x="330" y="17" class="circle-number">32</text>
      <rect x="350" y="0" width="30" height="25" class="circle-box" data-block="か" data-number="33"/>
      <text x="365" y="17" class="circle-number">33</text>
      <rect x="385" y="0" width="30" height="25" class="circle-box" data-block="か" data-number="34"/>
      <text x="400" y="17" class="circle-number">34</text>
    </g>

    <!-- か-35-38、か-39-44 -->
    <g transform="translate(500, 50)">
      <rect x="0" y="0" width="30" height="25" class="circle-box" data-block="か" data-number="35"/>
      <text x="15" y="17" class="circle-number">35</text>
      <rect x="35" y="0" width="30" height="25" class="circle-box" data-block="か" data-number="36"/>
      <text x="50" y="17" class="circle-number">36</text>
      <rect x="70" y="0" width="30" height="25" class="circle-box" data-block="か" data-number="37"/>
      <text x="85" y="17" class="circle-number">37</text>
      <rect x="105" y="0" width="30" height="25" class="circle-box" data-block="か" data-number="38"/>
      <text x="120" y="17" class="circle-number">38</text>

      <!-- か-39からか-44 -->
      <rect x="210" y="0" width="30" height="25" class="circle-box" data-block="か" data-number="39"/>
      <text x="225" y="17" class="circle-number">39</text>
      <rect x="245" y="0" width="30" height="25" class="circle-box" data-block="か" data-number="40"/>
      <text x="260" y="17" class="circle-number">40</text>
      <rect x="280" y="0" width="30" height="25" class="circle-box" data-block="か" data-number="41"/>
      <text x="295" y="17" class="circle-number">41</text>
      <rect x="315" y="0" width="30" height="25" class="circle-box" data-block="か" data-number="42"/>
      <text x="330" y="17" class="circle-number">42</text>
      <rect x="350" y="0" width="30" height="25" class="circle-box" data-block="か" data-number="43"/>
      <text x="365" y="17" class="circle-number">43</text>
      <rect x="385" y="0" width="30" height="25" class="circle-box" data-block="か" data-number="44"/>
      <text x="400" y="17" class="circle-number">44</text>
    </g>
  </g>

  <!-- つエリア下部 (つ-14からつ-01) -->
  <g id="tu-area-bottom" transform="translate(350, 700)">
    <text x="250" y="-10" class="area-label-large">つ</text>
    
    <rect x="0" y="0" width="30" height="25" class="circle-box" data-block="つ" data-number="14"/>
    <text x="15" y="17" class="circle-number">14</text>
    <rect x="35" y="0" width="30" height="25" class="circle-box" data-block="つ" data-number="13"/>
    <text x="50" y="17" class="circle-number">13</text>
    <rect x="70" y="0" width="30" height="25" class="circle-box" data-block="つ" data-number="12"/>
    <text x="85" y="17" class="circle-number">12</text>
    <rect x="105" y="0" width="30" height="25" class="circle-box" data-block="つ" data-number="11"/>
    <text x="120" y="17" class="circle-number">11</text>
    <rect x="140" y="0" width="30" height="25" class="circle-box" data-block="つ" data-number="10"/>
    <text x="155" y="17" class="circle-number">10</text>
    <rect x="175" y="0" width="30" height="25" class="circle-box" data-block="つ" data-number="09"/>
    <text x="190" y="17" class="circle-number">09</text>
    <rect x="210" y="0" width="30" height="25" class="circle-box" data-block="つ" data-number="08"/>
    <text x="225" y="17" class="circle-number">08</text>
    <rect x="245" y="0" width="30" height="25" class="circle-box" data-block="つ" data-number="07"/>
    <text x="260" y="17" class="circle-number">07</text>
    <rect x="280" y="0" width="30" height="25" class="circle-box" data-block="つ" data-number="06"/>
    <text x="295" y="17" class="circle-number">06</text>
    <rect x="315" y="0" width="30" height="25" class="circle-box" data-block="つ" data-number="05"/>
    <text x="330" y="17" class="circle-number">05</text>
    <rect x="350" y="0" width="30" height="25" class="circle-box" data-block="つ" data-number="04"/>
    <text x="365" y="17" class="circle-number">04</text>
    <rect x="385" y="0" width="30" height="25" class="circle-box" data-block="つ" data-number="03"/>
    <text x="400" y="17" class="circle-number">03</text>
    <rect x="420" y="0" width="30" height="25" class="circle-box" data-block="つ" data-number="02"/>
    <text x="435" y="17" class="circle-number">02</text>
    <rect x="455" y="0" width="30" height="25" class="circle-box" data-block="つ" data-number="01"/>
    <text x="470" y="17" class="circle-number">01</text>
  </g>

  <!-- つエリア下部第2行 (つ-15からつ-24) -->
  <g id="tu-area-bottom-2" transform="translate(450, 780)">
    <rect x="0" y="0" width="30" height="25" class="circle-box" data-block="つ" data-number="15"/>
    <text x="15" y="17" class="circle-number">15</text>
    <rect x="35" y="0" width="30" height="25" class="circle-box" data-block="つ" data-number="16"/>
    <text x="50" y="17" class="circle-number">16</text>
    <rect x="70" y="0" width="30" height="25" class="circle-box" data-block="つ" data-number="17"/>
    <text x="85" y="17" class="circle-number">17</text>
    <rect x="105" y="0" width="30" height="25" class="circle-box" data-block="つ" data-number="18"/>
    <text x="120" y="17" class="circle-number">18</text>
    <rect x="140" y="0" width="30" height="25" class="circle-box" data-block="つ" data-number="19"/>
    <text x="155" y="17" class="circle-number">19</text>
    <rect x="175" y="0" width="30" height="25" class="circle-box" data-block="つ" data-number="20"/>
    <text x="190" y="17" class="circle-number">20</text>
    <rect x="210" y="0" width="30" height="25" class="circle-box" data-block="つ" data-number="21"/>
    <text x="225" y="17" class="circle-number">21</text>
    <rect x="245" y="0" width="30" height="25" class="circle-box" data-block="つ" data-number="22"/>
    <text x="260" y="17" class="circle-number">22</text>
    <rect x="280" y="0" width="30" height="25" class="circle-box" data-block="つ" data-number="23"/>
    <text x="295" y="17" class="circle-number">23</text>
    <rect x="315" y="0" width="30" height="25" class="circle-box" data-block="つ" data-number="24"/>
    <text x="330" y="17" class="circle-number">24</text>
  </g>

  <!-- コスプレゾーン (下部) -->
  <rect x="415" y="860" width="400" height="60" class="cosplay-area"/>
  <text x="615" y="895" class="area-label-large">コスプレゾーン</text>

  <!-- コスプレゾーン (右側縦書き) -->
  <rect x="1125" y="300" width="60" height="200" class="cosplay-area"/>
  <text x="950" y="610" class="area-label-large" transform="rotate(-90 950 400)">コスプレゾーン</text>

</svg>