<?xml version="1.0" encoding="UTF-8"?>
<svg viewBox="0 0 1000 1000" xmlns="http://www.w3.org/2000/svg">
  <defs>
    <style>
      .area-border { fill: none; stroke: #333; stroke-width: 2; }
      .area-label { font-family: 'Noto Sans JP', sans-serif; font-size: 14px; font-weight: bold; text-anchor: middle; fill: #333; }
      .area-label-large { font-family: 'Noto Sans JP', sans-serif; font-size: 18px; font-weight: bold; text-anchor: middle; fill: #333; }
      .circle-number { font-family: 'Noto Sans JP', sans-serif; font-size: 11px; text-anchor: middle; fill: #333; font-weight: bold; }
      .circle-box { fill: #f8f9fa; stroke: #333; stroke-width: 1; }
      .miki-label { font-family: 'Noto Sans JP', sans-serif; font-size: 12px; font-weight: bold; text-anchor: middle; fill: #333; }
      .cosplay-area { fill: #f0f0f0; stroke: #333; stroke-width: 1; }
      .facility { fill: #f0f0f0; stroke: #333; stroke-width: 1; }
      .entrance { fill: #f0f0f0; stroke: #333; stroke-width: 2; }
    </style>
  </defs>

  <!-- 外枠 -->
  <rect x="10" y="10" width="980" height="980" class="area-border"/>

  <!-- コスプレゾーン (上部) -->
  <rect x="150" y="40" width="400" height="60" class="cosplay-area"/>
  <text x="350" y="75" class="area-label-large">コスプレゾーン</text>

  <!-- 化粧室・TOILET・更衣室 (右上) -->
  <rect x="650" y="40" width="200" height="80" class="facility"/>
  <text x="750" y="60" class="area-label">化粧室</text>
  <text x="750" y="80" class="area-label">TOILET</text>
  <text x="750" y="100" class="area-label">更衣室</text>

  <!-- コスプレゾーン (右側縦書き) -->
  <rect x="880" y="150" width="80" height="400" class="cosplay-area"/>
  <text x="920" y="350" class="area-label-large" transform="rotate(-90 920 350)">コスプレゾーン</text>

  <!-- みきエリア (左側) -->
  <g id="miki-area">
    <!-- カ行ラベル -->
    <text x="50" y="130" class="miki-label">カ</text>
    
    <!-- カ-06 -->
    <rect x="70" y="40" width="30" height="25" class="circle-box" data-block="カ" data-number="06"/>
    <text x="85" y="57" class="circle-number">06</text>
    
    <!-- カ-05 -->
    <rect x="70" y="70" width="30" height="25" class="circle-box" data-block="カ" data-number="05"/>
    <text x="85" y="87" class="circle-number">05</text>

    <!-- カ-04 -->
    <rect x="70" y="140" width="30" height="25" class="circle-box" data-block="カ" data-number="04"/>
    <text x="85" y="157" class="circle-number">04</text>
    
    <!-- カ-03 -->
    <rect x="70" y="170" width="30" height="25" class="circle-box" data-block="カ" data-number="03"/>
    <text x="85" y="187" class="circle-number">03</text>
    
    <text x="50" y="290" class="miki-label">カ</text>
    
    <!-- カ-02 -->
    <rect x="70" y="200" width="30" height="25" class="circle-box" data-block="カ" data-number="02"/>
    <text x="85" y="217" class="circle-number">02</text>
    
    <!-- カ-01 -->
    <rect x="70" y="230" width="30" height="25" class="circle-box" data-block="カ" data-number="01"/>
    <text x="85" y="247" class="circle-number">01</text>

    <!-- み-20 -->
    <rect x="70" y="270" width="30" height="25" class="circle-box" data-block="み" data-number="20"/>
    <text x="85" y="287" class="circle-number">20</text>
    
    <!-- み-19 -->
    <rect x="70" y="300" width="30" height="25" class="circle-box" data-block="み" data-number="19"/>
    <text x="85" y="317" class="circle-number">19</text>
    
    <!-- み-18 -->
    <rect x="70" y="330" width="30" height="25" class="circle-box" data-block="み" data-number="18"/>
    <text x="85" y="347" class="circle-number">18</text>
       
    <!-- み-17 -->
    <rect x="70" y="360" width="30" height="25" class="circle-box" data-block="み" data-number="17"/>
    <text x="85" y="377" class="circle-number">17</text>

    <text x="50" y="400" class="miki-label">み</text>
    
    <!-- み-16 -->
    <rect x="70" y="410" width="30" height="25" class="circle-box" data-block="み" data-number="16"/>
    <text x="85" y="427" class="circle-number">16</text>
    
    <!-- み-15 -->
    <rect x="70" y="440" width="30" height="25" class="circle-box" data-block="み" data-number="15"/>
    <text x="85" y="457" class="circle-number">15</text>
    
    <!-- み-14 -->
    <rect x="70" y="470" width="30" height="25" class="circle-box" data-block="み" data-number="14"/>
    <text x="85" y="487" class="circle-number">14</text>
    
    <!-- み-13 -->
    <rect x="70" y="500" width="30" height="25" class="circle-box" data-block="み" data-number="13"/>
    <text x="85" y="517" class="circle-number">13</text>

    <!-- み-12 -->
    <rect x="70" y="540" width="30" height="25" class="circle-box" data-block="み" data-number="12"/>
    <text x="85" y="557" class="circle-number">12</text>
        
    <!-- み-11 -->
    <rect x="70" y="570" width="30" height="25" class="circle-box" data-block="み" data-number="11"/>
    <text x="85" y="587" class="circle-number">11</text>
    
    <!-- み-10 -->
    <rect x="70" y="600" width="30" height="25" class="circle-box" data-block="み" data-number="11"/>
    <text x="85" y="617" class="circle-number">10</text>
    
    <!-- み-09 -->
    <rect x="70" y="630" width="30" height="25" class="circle-box" data-block="み" data-number="09"/>
    <text x="85" y="647" class="circle-number">09</text>

    <!-- み-08 -->
    <rect x="70" y="690" width="30" height="25" class="circle-box" data-block="み" data-number="08"/>
    <text x="85" y="707" class="circle-number">08</text>
    
    <!-- み-07 -->
    <rect x="70" y="720" width="30" height="25" class="circle-box" data-block="み" data-number="07"/>
    <text x="85" y="737" class="circle-number">07</text>
    
    <!-- み-06 -->
    <rect x="70" y="750" width="30" height="25" class="circle-box" data-block="み" data-number="06"/>
    <text x="85" y="767" class="circle-number">06</text>
    
    <text x="50" y="820" class="miki-label">み</text>
    
    <!-- み-05 -->
    <rect x="70" y="780" width="30" height="25" class="circle-box" data-block="み" data-number="05"/>
    <text x="85" y="797" class="circle-number">05</text>

    <!-- み-04 -->
    <rect x="70" y="840" width="30" height="25" class="circle-box" data-block="み" data-number="04"/>
    <text x="85" y="857" class="circle-number">04</text>
    
    <!-- み-03 -->
    <rect x="70" y="870" width="30" height="25" class="circle-box" data-block="み" data-number="03"/>
    <text x="85" y="887" class="circle-number">03</text>
    
    <!-- み-02 -->
    <rect x="70" y="900" width="30" height="25" class="circle-box" data-block="み" data-number="02"/>
    <text x="85" y="917" class="circle-number">02</text>
    
    <!-- み-01 -->
    <rect x="70" y="930" width="30" height="25" class="circle-box" data-block="み" data-number="01"/>
    <text x="85" y="947" class="circle-number">01</text>
  </g>

  <!-- メインサークルエリア上段 (ア行) -->
  <g id="a-area" transform="translate(250, 140)">
    <!-- 01-24列 -->
    <g>
      <!-- ア-01 -->
      <rect x="0" y="0" width="30" height="25" class="circle-box" data-block="ア" data-number="01"/>
      <text x="15" y="17" class="circle-number">01</text>
      <!-- ア-24 -->
      <rect x="35" y="0" width="30" height="25" class="circle-box" data-block="ア" data-number="24"/>
      <text x="50" y="17" class="circle-number">24</text>
      
      <!-- ア-02 -->
      <rect x="0" y="30" width="30" height="25" class="circle-box" data-block="ア" data-number="02"/>
      <text x="15" y="47" class="circle-number">02</text>
      <!-- ア-23 -->
      <rect x="35" y="30" width="30" height="25" class="circle-box" data-block="ア" data-number="23"/>
      <text x="50" y="47" class="circle-number">23</text>
      
      <!-- ア-03 -->
      <rect x="0" y="60" width="30" height="25" class="circle-box" data-block="ア" data-number="03"/>
      <text x="15" y="77" class="circle-number">03</text>
      <!-- ア-22 -->
      <rect x="35" y="60" width="30" height="25" class="circle-box" data-block="ア" data-number="22"/>
      <text x="50" y="77" class="circle-number">22</text>
      
      <!-- ア-04 -->
      <rect x="0" y="90" width="30" height="25" class="circle-box" data-block="ア" data-number="04"/>
      <text x="15" y="107" class="circle-number">04</text>
      <!-- ア-21 -->
      <rect x="35" y="90" width="30" height="25" class="circle-box" data-block="ア" data-number="21"/>
      <text x="50" y="107" class="circle-number">21</text>
      
      <!-- ア-05 -->
      <rect x="0" y="120" width="30" height="25" class="circle-box" data-block="ア" data-number="05"/>
      <text x="15" y="137" class="circle-number">05</text>
      <!-- ア-20 -->
      <rect x="35" y="120" width="30" height="25" class="circle-box" data-block="ア" data-number="20"/>
      <text x="50" y="137" class="circle-number">20</text>
      
      <!-- ア-06 -->
      <rect x="0" y="150" width="30" height="25" class="circle-box" data-block="ア" data-number="06"/>
      <text x="15" y="167" class="circle-number">06</text>
      <!-- ア-19 -->
      <rect x="35" y="150" width="30" height="25" class="circle-box" data-block="ア" data-number="19"/>
      <text x="50" y="167" class="circle-number">19</text>
      
      <!-- ア-07 -->
      <rect x="0" y="180" width="30" height="25" class="circle-box" data-block="ア" data-number="07"/>
      <text x="15" y="197" class="circle-number">07</text>
      <!-- ア-18 -->
      <rect x="35" y="180" width="30" height="25" class="circle-box" data-block="ア" data-number="18"/>
      <text x="50" y="197" class="circle-number">18</text>
      
      <!-- ア-08 -->
      <rect x="0" y="210" width="30" height="25" class="circle-box" data-block="ア" data-number="08"/>
      <text x="15" y="227" class="circle-number">08</text>
      <!-- ア-17 -->
      <rect x="35" y="210" width="30" height="25" class="circle-box" data-block="ア" data-number="17"/>
      <text x="50" y="227" class="circle-number">17</text>
      
      <!-- ア-09 -->
      <rect x="0" y="240" width="30" height="25" class="circle-box" data-block="ア" data-number="09"/>
      <text x="15" y="257" class="circle-number">09</text>
      <!-- ア-16 -->
      <rect x="35" y="240" width="30" height="25" class="circle-box" data-block="ア" data-number="16"/>
      <text x="50" y="257" class="circle-number">16</text>
      
      <!-- ア-10 -->
      <rect x="0" y="270" width="30" height="25" class="circle-box" data-block="ア" data-number="10"/>
      <text x="15" y="287" class="circle-number">10</text>
      <!-- ア-15 -->
      <rect x="35" y="270" width="30" height="25" class="circle-box" data-block="ア" data-number="15"/>
      <text x="50" y="287" class="circle-number">15</text>
      
      <!-- ア-11 -->
      <rect x="0" y="300" width="30" height="25" class="circle-box" data-block="ア" data-number="11"/>
      <text x="15" y="317" class="circle-number">11</text>
      <!-- ア-14 -->
      <rect x="35" y="300" width="30" height="25" class="circle-box" data-block="ア" data-number="14"/>
      <text x="50" y="317" class="circle-number">14</text>
      
      <!-- ア-12 -->
      <rect x="0" y="330" width="30" height="25" class="circle-box" data-block="ア" data-number="12"/>
      <text x="15" y="347" class="circle-number">12</text>
      <!-- ア-13 -->
      <rect x="35" y="330" width="30" height="25" class="circle-box" data-block="ア" data-number="13"/>
      <text x="50" y="347" class="circle-number">13</text>
      
      <text x="85" y="180" class="area-label">ア</text>
    </g>
    
    <!-- 25-48列 -->
    <g transform="translate(200, 0)">
      <!-- ア-25 -->
      <rect x="0" y="0" width="30" height="25" class="circle-box" data-block="ア" data-number="25"/>
      <text x="15" y="17" class="circle-number">25</text>
      <!-- ア-48 -->
      <rect x="35" y="0" width="30" height="25" class="circle-box" data-block="ア" data-number="48"/>
      <text x="50" y="17" class="circle-number">48</text>
      
      <!-- ア-26 -->
      <rect x="0" y="30" width="30" height="25" class="circle-box" data-block="ア" data-number="26"/>
      <text x="15" y="47" class="circle-number">26</text>
      <!-- ア-47 -->
      <rect x="35" y="30" width="30" height="25" class="circle-box" data-block="ア" data-number="47"/>
      <text x="50" y="47" class="circle-number">47</text>
      
      <!-- ア-27 -->
      <rect x="0" y="60" width="30" height="25" class="circle-box" data-block="ア" data-number="27"/>
      <text x="15" y="77" class="circle-number">27</text>
      <!-- ア-46 -->
      <rect x="35" y="60" width="30" height="25" class="circle-box" data-block="ア" data-number="46"/>
      <text x="50" y="77" class="circle-number">46</text>
      
      <!-- ア-28 -->
      <rect x="0" y="90" width="30" height="25" class="circle-box" data-block="ア" data-number="28"/>
      <text x="15" y="107" class="circle-number">28</text>
      <!-- ア-45 -->
      <rect x="35" y="90" width="30" height="25" class="circle-box" data-block="ア" data-number="45"/>
      <text x="50" y="107" class="circle-number">45</text>
      
      <!-- ア-29 -->
      <rect x="0" y="120" width="30" height="25" class="circle-box" data-block="ア" data-number="29"/>
      <text x="15" y="137" class="circle-number">29</text>
      <!-- ア-44 -->
      <rect x="35" y="120" width="30" height="25" class="circle-box" data-block="ア" data-number="44"/>
      <text x="50" y="137" class="circle-number">44</text>
      
      <!-- ア-30 -->
      <rect x="0" y="150" width="30" height="25" class="circle-box" data-block="ア" data-number="30"/>
      <text x="15" y="167" class="circle-number">30</text>
      <!-- ア-43 -->
      <rect x="35" y="150" width="30" height="25" class="circle-box" data-block="ア" data-number="43"/>
      <text x="50" y="167" class="circle-number">43</text>
      
      <!-- ア-31 -->
      <rect x="0" y="180" width="30" height="25" class="circle-box" data-block="ア" data-number="31"/>
      <text x="15" y="197" class="circle-number">31</text>
      <!-- ア-42 -->
      <rect x="35" y="180" width="30" height="25" class="circle-box" data-block="ア" data-number="42"/>
      <text x="50" y="197" class="circle-number">42</text>
      
      <!-- ア-32 -->
      <rect x="0" y="210" width="30" height="25" class="circle-box" data-block="ア" data-number="32"/>
      <text x="15" y="227" class="circle-number">32</text>
      <!-- ア-41 -->
      <rect x="35" y="210" width="30" height="25" class="circle-box" data-block="ア" data-number="41"/>
      <text x="50" y="227" class="circle-number">41</text>
      
      <!-- ア-33 -->
      <rect x="0" y="240" width="30" height="25" class="circle-box" data-block="ア" data-number="33"/>
      <text x="15" y="257" class="circle-number">33</text>
      <!-- ア-40 -->
      <rect x="35" y="240" width="30" height="25" class="circle-box" data-block="ア" data-number="40"/>
      <text x="50" y="257" class="circle-number">40</text>
      
      <!-- ア-34 -->
      <rect x="0" y="270" width="30" height="25" class="circle-box" data-block="ア" data-number="34"/>
      <text x="15" y="287" class="circle-number">34</text>
      <!-- ア-39 -->
      <rect x="35" y="270" width="30" height="25" class="circle-box" data-block="ア" data-number="39"/>
      <text x="50" y="287" class="circle-number">39</text>
      
      <!-- ア-35 -->
      <rect x="0" y="300" width="30" height="25" class="circle-box" data-block="ア" data-number="35"/>
      <text x="15" y="317" class="circle-number">35</text>
      <!-- ア-38 -->
      <rect x="35" y="300" width="30" height="25" class="circle-box" data-block="ア" data-number="38"/>
      <text x="50" y="317" class="circle-number">38</text>
      
      <!-- ア-36 -->
      <rect x="0" y="330" width="30" height="25" class="circle-box" data-block="ア" data-number="36"/>
      <text x="15" y="347" class="circle-number">36</text>
      <!-- ア-37 -->
      <rect x="35" y="330" width="30" height="25" class="circle-box" data-block="ア" data-number="37"/>
      <text x="50" y="347" class="circle-number">37</text>
      
      <text x="85" y="180" class="area-label">ア</text>
    </g>
    
    <!-- 49-72列 -->
    <g transform="translate(400, 0)">
      <!-- ア-49 -->
      <rect x="0" y="0" width="30" height="25" class="circle-box" data-block="ア" data-number="49"/>
      <text x="15" y="17" class="circle-number">49</text>
      <!-- ア-72 -->
      <rect x="35" y="0" width="30" height="25" class="circle-box" data-block="ア" data-number="72"/>
      <text x="50" y="17" class="circle-number">72</text>
      
      <!-- ア-50 -->
      <rect x="0" y="30" width="30" height="25" class="circle-box" data-block="ア" data-number="50"/>
      <text x="15" y="47" class="circle-number">50</text>
      <!-- ア-71 -->
      <rect x="35" y="30" width="30" height="25" class="circle-box" data-block="ア" data-number="71"/>
      <text x="50" y="47" class="circle-number">71</text>
      
      <!-- ア-51 -->
      <rect x="0" y="60" width="30" height="25" class="circle-box" data-block="ア" data-number="51"/>
      <text x="15" y="77" class="circle-number">51</text>
      <!-- ア-70 -->
      <rect x="35" y="60" width="30" height="25" class="circle-box" data-block="ア" data-number="70"/>
      <text x="50" y="77" class="circle-number">70</text>
      
      <!-- ア-52 -->
      <rect x="0" y="90" width="30" height="25" class="circle-box" data-block="ア" data-number="52"/>
      <text x="15" y="107" class="circle-number">52</text>
      <!-- ア-69 -->
      <rect x="35" y="90" width="30" height="25" class="circle-box" data-block="ア" data-number="69"/>
      <text x="50" y="107" class="circle-number">69</text>
      
      <!-- ア-53 -->
      <rect x="0" y="120" width="30" height="25" class="circle-box" data-block="ア" data-number="53"/>
      <text x="15" y="137" class="circle-number">53</text>
      <!-- ア-68 -->
      <rect x="35" y="120" width="30" height="25" class="circle-box" data-block="ア" data-number="68"/>
      <text x="50" y="137" class="circle-number">68</text>
      
      <!-- ア-54 -->
      <rect x="0" y="150" width="30" height="25" class="circle-box" data-block="ア" data-number="54"/>
      <text x="15" y="167" class="circle-number">54</text>
      <!-- ア-67 -->
      <rect x="35" y="150" width="30" height="25" class="circle-box" data-block="ア" data-number="67"/>
      <text x="50" y="167" class="circle-number">67</text>
      
      <!-- ア-55 -->
      <rect x="0" y="180" width="30" height="25" class="circle-box" data-block="ア" data-number="55"/>
      <text x="15" y="197" class="circle-number">55</text>
      <!-- ア-66 -->
      <rect x="35" y="180" width="30" height="25" class="circle-box" data-block="ア" data-number="66"/>
      <text x="50" y="197" class="circle-number">66</text>
      
      <!-- ア-56 -->
      <rect x="0" y="210" width="30" height="25" class="circle-box" data-block="ア" data-number="56"/>
      <text x="15" y="227" class="circle-number">56</text>
      <!-- ア-65 -->
      <rect x="35" y="210" width="30" height="25" class="circle-box" data-block="ア" data-number="65"/>
      <text x="50" y="227" class="circle-number">65</text>
      
      <!-- ア-57 -->
      <rect x="0" y="240" width="30" height="25" class="circle-box" data-block="ア" data-number="57"/>
      <text x="15" y="257" class="circle-number">57</text>
      <!-- ア-64 -->
      <rect x="35" y="240" width="30" height="25" class="circle-box" data-block="ア" data-number="64"/>
      <text x="50" y="257" class="circle-number">64</text>
      
      <!-- ア-58 -->
      <rect x="0" y="270" width="30" height="25" class="circle-box" data-block="ア" data-number="58"/>
      <text x="15" y="287" class="circle-number">58</text>
      <!-- ア-63 -->
      <rect x="35" y="270" width="30" height="25" class="circle-box" data-block="ア" data-number="63"/>
      <text x="50" y="287" class="circle-number">63</text>
      
      <!-- ア-59 -->
      <rect x="0" y="300" width="30" height="25" class="circle-box" data-block="ア" data-number="59"/>
      <text x="15" y="317" class="circle-number">59</text>
      <!-- ア-62 -->
      <rect x="35" y="300" width="30" height="25" class="circle-box" data-block="ア" data-number="62"/>
      <text x="50" y="317" class="circle-number">62</text>
      
      <!-- ア-60 -->
      <rect x="0" y="330" width="30" height="25" class="circle-box" data-block="ア" data-number="60"/>
      <text x="15" y="347" class="circle-number">60</text>
      <!-- ア-61 -->
      <rect x="35" y="330" width="30" height="25" class="circle-box" data-block="ア" data-number="61"/>
      <text x="50" y="347" class="circle-number">61</text>
      
      <text x="85" y="180" class="area-label">ア</text>
    </g>
  </g>

  <!-- メインサークルエリア下段 (ド行) -->
  <g id="do-area" transform="translate(250, 540)">
    <!-- 01-24列 -->
    <g>
      <!-- ド-01 -->
      <rect x="0" y="0" width="30" height="25" class="circle-box" data-block="ド" data-number="01"/>
      <text x="15" y="17" class="circle-number">01</text>
      <!-- ド-24 -->
      <rect x="35" y="0" width="30" height="25" class="circle-box" data-block="ド" data-number="24"/>
      <text x="50" y="17" class="circle-number">24</text>
      
      <!-- ド-02 -->
      <rect x="0" y="30" width="30" height="25" class="circle-box" data-block="ド" data-number="02"/>
      <text x="15" y="47" class="circle-number">02</text>
      <!-- ド-23 -->
      <rect x="35" y="30" width="30" height="25" class="circle-box" data-block="ド" data-number="23"/>
      <text x="50" y="47" class="circle-number">23</text>
      
      <!-- ド-03 -->
      <rect x="0" y="60" width="30" height="25" class="circle-box" data-block="ド" data-number="03"/>
      <text x="15" y="77" class="circle-number">03</text>
      <!-- ド-22 -->
      <rect x="35" y="60" width="30" height="25" class="circle-box" data-block="ド" data-number="22"/>
      <text x="50" y="77" class="circle-number">22</text>
      
      <!-- ド-04 -->
      <rect x="0" y="90" width="30" height="25" class="circle-box" data-block="ド" data-number="04"/>
      <text x="15" y="107" class="circle-number">04</text>
      <!-- ド-21 -->
      <rect x="35" y="90" width="30" height="25" class="circle-box" data-block="ド" data-number="21"/>
      <text x="50" y="107" class="circle-number">21</text>
      
      <!-- ド-05 -->
      <rect x="0" y="120" width="30" height="25" class="circle-box" data-block="ド" data-number="05"/>
      <text x="15" y="137" class="circle-number">05</text>
      <!-- ド-20 -->
      <rect x="35" y="120" width="30" height="25" class="circle-box" data-block="ド" data-number="20"/>
      <text x="50" y="137" class="circle-number">20</text>
      
      <!-- ド-06 -->
      <rect x="0" y="150" width="30" height="25" class="circle-box" data-block="ド" data-number="06"/>
      <text x="15" y="167" class="circle-number">06</text>
      <!-- ド-19 -->
      <rect x="35" y="150" width="30" height="25" class="circle-box" data-block="ド" data-number="19"/>
      <text x="50" y="167" class="circle-number">19</text>
      
      <!-- ド-07 -->
      <rect x="0" y="180" width="30" height="25" class="circle-box" data-block="ド" data-number="07"/>
      <text x="15" y="197" class="circle-number">07</text>
      <!-- ド-18 -->
      <rect x="35" y="180" width="30" height="25" class="circle-box" data-block="ド" data-number="18"/>
      <text x="50" y="197" class="circle-number">18</text>
      
      <!-- ド-08 -->
      <rect x="0" y="210" width="30" height="25" class="circle-box" data-block="ド" data-number="08"/>
      <text x="15" y="227" class="circle-number">08</text>
      <!-- ド-17 -->
      <rect x="35" y="210" width="30" height="25" class="circle-box" data-block="ド" data-number="17"/>
      <text x="50" y="227" class="circle-number">17</text>
      
      <!-- ド-09 -->
      <rect x="0" y="240" width="30" height="25" class="circle-box" data-block="ド" data-number="09"/>
      <text x="15" y="257" class="circle-number">09</text>
      <!-- ド-16 -->
      <rect x="35" y="240" width="30" height="25" class="circle-box" data-block="ド" data-number="16"/>
      <text x="50" y="257" class="circle-number">16</text>
      
      <!-- ド-10 -->
      <rect x="0" y="270" width="30" height="25" class="circle-box" data-block="ド" data-number="10"/>
      <text x="15" y="287" class="circle-number">10</text>
      <!-- ド-15 -->
      <rect x="35" y="270" width="30" height="25" class="circle-box" data-block="ド" data-number="15"/>
      <text x="50" y="287" class="circle-number">15</text>
      
      <!-- ド-11 -->
      <rect x="0" y="300" width="30" height="25" class="circle-box" data-block="ド" data-number="11"/>
      <text x="15" y="317" class="circle-number">11</text>
      <!-- ド-14 -->
      <rect x="35" y="300" width="30" height="25" class="circle-box" data-block="ド" data-number="14"/>
      <text x="50" y="317" class="circle-number">14</text>
      
      <!-- ド-12 -->
      <rect x="0" y="330" width="30" height="25" class="circle-box" data-block="ド" data-number="12"/>
      <text x="15" y="347" class="circle-number">12</text>
      <!-- ド-13 -->
      <rect x="35" y="330" width="30" height="25" class="circle-box" data-block="ド" data-number="13"/>
      <text x="50" y="347" class="circle-number">13</text>
      
      <text x="85" y="180" class="area-label">ド</text>
    </g>
    
    <!-- 25-48列 -->
    <g transform="translate(200, 0)">
      <!-- ド-25 -->
      <rect x="0" y="0" width="30" height="25" class="circle-box" data-block="ド" data-number="25"/>
      <text x="15" y="17" class="circle-number">25</text>
      <!-- ド-48 -->
      <rect x="35" y="0" width="30" height="25" class="circle-box" data-block="ド" data-number="48"/>
      <text x="50" y="17" class="circle-number">48</text>
      
      <!-- ド-26 -->
      <rect x="0" y="30" width="30" height="25" class="circle-box" data-block="ド" data-number="26"/>
      <text x="15" y="47" class="circle-number">26</text>
      <!-- ド-47 -->
      <rect x="35" y="30" width="30" height="25" class="circle-box" data-block="ド" data-number="47"/>
      <text x="50" y="47" class="circle-number">47</text>
      
      <!-- ド-27 -->
      <rect x="0" y="60" width="30" height="25" class="circle-box" data-block="ド" data-number="27"/>
      <text x="15" y="77" class="circle-number">27</text>
      <!-- ド-46 -->
      <rect x="35" y="60" width="30" height="25" class="circle-box" data-block="ド" data-number="46"/>
      <text x="50" y="77" class="circle-number">46</text>
      
      <!-- ド-28 -->
      <rect x="0" y="90" width="30" height="25" class="circle-box" data-block="ド" data-number="28"/>
      <text x="15" y="107" class="circle-number">28</text>
      <!-- ド-45 -->
      <rect x="35" y="90" width="30" height="25" class="circle-box" data-block="ド" data-number="45"/>
      <text x="50" y="107" class="circle-number">45</text>
      
      <!-- ド-29 -->
      <rect x="0" y="120" width="30" height="25" class="circle-box" data-block="ド" data-number="29"/>
      <text x="15" y="137" class="circle-number">29</text>
      <!-- ド-44 -->
      <rect x="35" y="120" width="30" height="25" class="circle-box" data-block="ド" data-number="44"/>
      <text x="50" y="137" class="circle-number">44</text>
      
      <!-- ド-30 -->
      <rect x="0" y="150" width="30" height="25" class="circle-box" data-block="ド" data-number="30"/>
      <text x="15" y="167" class="circle-number">30</text>
      <!-- ド-43 -->
      <rect x="35" y="150" width="30" height="25" class="circle-box" data-block="ド" data-number="43"/>
      <text x="50" y="167" class="circle-number">43</text>
      
      <!-- ド-31 -->
      <rect x="0" y="180" width="30" height="25" class="circle-box" data-block="ド" data-number="31"/>
      <text x="15" y="197" class="circle-number">31</text>
      <!-- ド-42 -->
      <rect x="35" y="180" width="30" height="25" class="circle-box" data-block="ド" data-number="42"/>
      <text x="50" y="197" class="circle-number">42</text>
      
      <!-- ド-32 -->
      <rect x="0" y="210" width="30" height="25" class="circle-box" data-block="ド" data-number="32"/>
      <text x="15" y="227" class="circle-number">32</text>
      <!-- ド-41 -->
      <rect x="35" y="210" width="30" height="25" class="circle-box" data-block="ド" data-number="41"/>
      <text x="50" y="227" class="circle-number">41</text>
      
      <!-- ド-33 -->
      <rect x="0" y="240" width="30" height="25" class="circle-box" data-block="ド" data-number="33"/>
      <text x="15" y="257" class="circle-number">33</text>
      <!-- ド-40 -->
      <rect x="35" y="240" width="30" height="25" class="circle-box" data-block="ド" data-number="40"/>
      <text x="50" y="257" class="circle-number">40</text>
      
      <!-- ド-34 -->
      <rect x="0" y="270" width="30" height="25" class="circle-box" data-block="ド" data-number="34"/>
      <text x="15" y="287" class="circle-number">34</text>
      <!-- ド-39 -->
      <rect x="35" y="270" width="30" height="25" class="circle-box" data-block="ド" data-number="39"/>
      <text x="50" y="287" class="circle-number">39</text>
      
      <!-- ド-35 -->
      <rect x="0" y="300" width="30" height="25" class="circle-box" data-block="ド" data-number="35"/>
      <text x="15" y="317" class="circle-number">35</text>
      <!-- ド-38 -->
      <rect x="35" y="300" width="30" height="25" class="circle-box" data-block="ド" data-number="38"/>
      <text x="50" y="317" class="circle-number">38</text>
      
      <!-- ド-36 -->
      <rect x="0" y="330" width="30" height="25" class="circle-box" data-block="ド" data-number="36"/>
      <text x="15" y="347" class="circle-number">36</text>
      <!-- ド-37 -->
      <rect x="35" y="330" width="30" height="25" class="circle-box" data-block="ド" data-number="37"/>
      <text x="50" y="347" class="circle-number">37</text>
      
      <text x="85" y="180" class="area-label">ド</text>
    </g>
    
    <!-- 49-72列 -->
    <g transform="translate(400, 0)">
      <!-- ド-49 -->
      <rect x="0" y="0" width="30" height="25" class="circle-box" data-block="ド" data-number="49"/>
      <text x="15" y="17" class="circle-number">49</text>
      <!-- ド-72 -->
      <rect x="35" y="0" width="30" height="25" class="circle-box" data-block="ド" data-number="72"/>
      <text x="50" y="17" class="circle-number">72</text>
      
      <!-- ド-50 -->
      <rect x="0" y="30" width="30" height="25" class="circle-box" data-block="ド" data-number="50"/>
      <text x="15" y="47" class="circle-number">50</text>
      <!-- ド-71 -->
      <rect x="35" y="30" width="30" height="25" class="circle-box" data-block="ド" data-number="71"/>
      <text x="50" y="47" class="circle-number">71</text>
      
      <!-- ド-51 -->
      <rect x="0" y="60" width="30" height="25" class="circle-box" data-block="ド" data-number="51"/>
      <text x="15" y="77" class="circle-number">51</text>
      <!-- ド-70 -->
      <rect x="35" y="60" width="30" height="25" class="circle-box" data-block="ド" data-number="70"/>
      <text x="50" y="77" class="circle-number">70</text>
      
      <!-- ド-52 -->
      <rect x="0" y="90" width="30" height="25" class="circle-box" data-block="ド" data-number="52"/>
      <text x="15" y="107" class="circle-number">52</text>
      <!-- ド-69 -->
      <rect x="35" y="90" width="30" height="25" class="circle-box" data-block="ド" data-number="69"/>
      <text x="50" y="107" class="circle-number">69</text>
      
      <!-- ド-53 -->
      <rect x="0" y="120" width="30" height="25" class="circle-box" data-block="ド" data-number="53"/>
      <text x="15" y="137" class="circle-number">53</text>
      <!-- ド-68 -->
      <rect x="35" y="120" width="30" height="25" class="circle-box" data-block="ド" data-number="68"/>
      <text x="50" y="137" class="circle-number">68</text>
      
      <!-- ド-54 -->
      <rect x="0" y="150" width="30" height="25" class="circle-box" data-block="ド" data-number="54"/>
      <text x="15" y="167" class="circle-number">54</text>
      <!-- ド-67 -->
      <rect x="35" y="150" width="30" height="25" class="circle-box" data-block="ド" data-number="67"/>
      <text x="50" y="167" class="circle-number">67</text>
      
      <!-- ド-55 -->
      <rect x="0" y="180" width="30" height="25" class="circle-box" data-block="ド" data-number="55"/>
      <text x="15" y="197" class="circle-number">55</text>
      <!-- ド-66 -->
      <rect x="35" y="180" width="30" height="25" class="circle-box" data-block="ド" data-number="66"/>
      <text x="50" y="197" class="circle-number">66</text>
      
      <!-- ド-56 -->
      <rect x="0" y="210" width="30" height="25" class="circle-box" data-block="ド" data-number="56"/>
      <text x="15" y="227" class="circle-number">56</text>
      <!-- ド-65 -->
      <rect x="35" y="210" width="30" height="25" class="circle-box" data-block="ド" data-number="65"/>
      <text x="50" y="227" class="circle-number">65</text>
      
      <!-- ド-57 -->
      <rect x="0" y="240" width="30" height="25" class="circle-box" data-block="ド" data-number="57"/>
      <text x="15" y="257" class="circle-number">57</text>
      <!-- ド-64 -->
      <rect x="35" y="240" width="30" height="25" class="circle-box" data-block="ド" data-number="64"/>
      <text x="50" y="257" class="circle-number">64</text>
      
      <!-- ド-58 -->
      <rect x="0" y="270" width="30" height="25" class="circle-box" data-block="ド" data-number="58"/>
      <text x="15" y="287" class="circle-number">58</text>
      <!-- ド-63 -->
      <rect x="35" y="270" width="30" height="25" class="circle-box" data-block="ド" data-number="63"/>
      <text x="50" y="287" class="circle-number">63</text>
      
      <!-- ド-59 -->
      <rect x="0" y="300" width="30" height="25" class="circle-box" data-block="ド" data-number="59"/>
      <text x="15" y="317" class="circle-number">59</text>
      <!-- ド-62 -->
      <rect x="35" y="300" width="30" height="25" class="circle-box" data-block="ド" data-number="62"/>
      <text x="50" y="317" class="circle-number">62</text>
      
      <!-- ド-60 -->
      <rect x="0" y="330" width="30" height="25" class="circle-box" data-block="ド" data-number="60"/>
      <text x="15" y="347" class="circle-number">60</text>
      <!-- ド-61 -->
      <rect x="35" y="330" width="30" height="25" class="circle-box" data-block="ド" data-number="61"/>
      <text x="50" y="347" class="circle-number">61</text>
      
      <text x="85" y="180" class="area-label">ド</text>
    </g>
  </g>

  <!-- 出入口GATE -->
  <rect x="600" y="920" width="200" height="60" class="entrance"/>
  <text x="700" y="945" class="area-label-large">出入口</text>
  <text x="700" y="965" class="area-label-large">GATE</text>


</svg>